<svg xmlns="http://www.w3.org/2000/svg" viewBox="0 0 64 64" role="img" aria-label="Aesthée">
  <rect width="64" height="64" rx="14" fill="#F6F0E6"/>
  <g transform="translate(6.00 8.92) scale(0.090656)" fill="#C5A059" fill-rule="evenodd">
    <path d="M285.7 4.2L286.4 4.7L288.1 8.9L290.6 16.9L291.4 21.6L290.7 22.8L290.4 24.9L290.7 27.9L291.6 29.8L293.1 30.6L294.2 32.7L294.9 36.2L295.9 39.1L297.2 41.3L298.1 43.6L298.6 45.8L299.6 47.6L301.1 48.8L301.9 50.4L302.2 52.4L302.1 57.2L301.6 64.7L300.9 69.2L300.2 70.7L299.3 73.7L298.3 78.2L297.4 80.8L296.7 81.6L295.9 85.3L295.2 92.1L294.5 95.9L293.9 96.8L293.0 97.4L291.9 97.8L291.6 101.2L292.1 107.7L292.7 111.9L293.4 113.9L294.7 116.2L296.4 118.7L297.0 120.5L296.4 121.6L295.6 122.3L294.6 122.6L292.2 122.7L288.4 122.7L285.2 121.9L282.6 120.2L281.1 118.7L280.6 117.2L279.2 114.8L276.9 111.6L275.3 106.8L274.3 100.6L274.1 93.7L274.6 86.2L275.9 78.6L278.2 70.8L279.7 66.4L280.4 65.4L282.1 59.4L284.6 48.4L286.1 40.4L286.6 35.4L286.8 29.1L286.8 21.3L286.6 17.2L286.1 16.7L285.6 13.4L285.2 7.2L285.1 4.1L285.2 4.0ZM353.2 61.6L353.9 61.8L354.3 63.1L354.3 65.3L353.9 66.9L353.2 67.9L353.2 69.7L353.9 72.2L353.9 74.3L353.2 76.1L352.4 81.9L351.7 91.9L351.1 97.7L350.6 99.2L347.0 103.2L340.4 109.9L336.9 112.4L336.5 110.8L337.3 104.8L339.3 94.6L341.1 87.6L342.6 83.8L343.8 81.4L344.8 80.4L347.1 75.4L350.8 66.2L352.6 61.6L352.8 61.5ZM224.2 67.2L224.9 67.7L225.6 68.7L226.1 70.2L226.7 73.4L227.4 78.4L228.7 82.2L230.4 84.7L232.2 88.4L233.9 93.4L235.6 96.4L237.1 97.4L237.8 100.8L237.8 106.6L238.3 110.8L239.3 113.6L239.6 115.2L239.2 115.9L238.7 116.2L237.9 116.2L236.7 115.6L234.9 114.3L232.4 112.0L229.0 108.6L227.2 106.6L226.9 105.8L226.6 103.7L226.1 100.2L225.6 98.1L225.1 97.3L224.5 89.5L223.9 74.6L223.6 67.1L223.8 67.0ZM417.3 70.1L418.3 70.3L418.7 71.3L418.4 73.1L417.6 74.9L416.1 76.9L414.9 79.3L414.2 82.1L411.7 87.4L407.4 95.4L405.1 100.4L404.6 102.4L404.0 103.8L403.4 104.4L402.7 104.7L401.9 104.7L401.2 105.1L400.6 106.0L400.1 107.2L399.6 108.7L399.3 112.2L399.3 117.7L398.8 121.6L397.8 123.8L396.0 126.5L393.4 129.6L391.2 131.7L389.4 132.7L388.1 133.8L387.1 135.1L385.7 135.9L383.9 136.4L382.4 135.2L381.0 132.4L380.2 128.8L379.9 124.6L380.1 120.6L380.6 116.8L382.1 112.8L384.6 108.6L388.9 103.2L395.2 96.7L402.9 87.6L412.0 76.0L416.6 70.1L416.8 70.0ZM164.8 73.6L165.8 73.8L167.1 75.6L168.6 78.8L170.6 81.9L173.1 84.9L174.8 87.6L175.8 89.8L177.7 92.7L180.4 96.2L182.9 99.9L185.2 103.9L188.6 107.9L193.1 111.9L195.9 115.1L197.2 117.3L198.7 121.1L200.4 126.3L201.1 129.5L200.8 130.6L197.4 130.4L191.2 128.9L186.1 126.4L182.2 122.8L179.2 117.6L176.9 110.8L175.3 105.1L174.3 100.3L172.7 95.7L170.4 91.2L169.2 87.9L168.9 85.9L167.7 82.2L165.4 76.7L164.3 73.8L164.3 73.6ZM93.1 101.5L98.8 103.6L102.7 105.4L104.9 106.9L106.6 107.7L107.6 107.7L109.0 108.4L110.9 109.8L111.8 110.9L111.8 111.9L112.1 112.8L112.8 113.4L113.9 113.8L115.7 114.1L117.4 115.1L119.0 117.0L119.9 118.6L120.2 119.8L120.7 120.8L121.4 121.6L121.8 122.6L121.8 123.8L123.8 125.2L127.6 126.9L131.2 129.3L134.4 132.6L136.6 134.3L137.6 134.6L139.2 136.1L141.6 139.0L144.2 143.2L146.9 148.7L149.9 152.9L153.0 155.8L156.4 158.3L160.2 160.6L162.2 162.0L162.6 162.6L161.2 163.8L158.1 165.4L154.3 166.1L149.8 165.8L146.9 165.9L145.7 166.4L144.7 166.1L143.9 164.8L142.9 164.1L141.7 163.8L139.6 162.7L136.6 160.7L134.0 158.8L131.9 156.9L130.2 154.9L128.9 152.9L126.4 148.1L122.7 140.3L120.2 135.7L118.9 134.2L118.1 132.6L117.6 130.8L115.8 127.8L112.8 123.6L107.5 117.4L99.9 109.2L94.8 104.4L92.3 102.9L90.8 101.8L90.3 101.1L90.1 100.6L90.2 100.5ZM480.2 105.9L481.1 105.8L481.8 106.2L482.1 107.4L479.7 110.4L474.4 115.4L469.7 121.1L465.4 127.3L462.8 131.9L461.8 134.9L460.8 136.9L459.8 137.9L458.8 139.9L457.8 142.9L456.7 145.2L455.4 146.7L454.7 147.9L454.4 148.9L453.3 150.8L451.3 153.6L448.9 156.4L446.0 159.2L440.7 162.3L432.9 165.6L428.3 166.8L426.8 166.1L424.3 165.6L420.8 165.3L418.9 165.0L418.5 164.6L418.2 163.8L417.9 162.6L418.1 161.7L418.6 161.2L418.9 160.2L419.2 158.7L419.6 157.6L420.2 157.0L420.9 156.7L421.7 156.7L425.0 153.5L430.9 147.1L434.3 142.6L435.3 139.8L437.2 136.2L439.9 131.7L443.1 127.2L446.8 122.9L449.7 120.1L451.9 118.8L454.3 118.1L456.8 117.8L459.3 116.7L461.8 114.7L463.9 113.6L465.7 113.3L466.9 112.8L467.7 112.1L470.9 110.3L476.7 107.6L479.6 106.1L479.8 106.0ZM248.0 126.4L249.4 126.2L250.2 126.4L250.6 126.8L249.4 127.4L246.5 128.2L244.3 129.2L242.8 130.2L240.3 130.9L236.8 131.4L232.6 132.9L227.6 135.4L223.8 136.9L221.3 137.4L219.2 138.3L217.4 139.6L215.7 140.4L213.9 140.9L211.7 142.1L208.9 143.8L207.2 144.7L206.4 144.7L203.2 146.4L197.4 149.9L189.9 155.4L180.7 162.9L175.4 167.4L174.0 168.8L173.1 170.3L172.6 172.1L172.5 173.1L172.9 173.5L174.1 173.6L176.1 173.3L178.6 171.7L181.6 168.7L183.9 166.9L185.7 166.4L188.9 164.2L193.7 160.2L197.4 157.6L200.2 156.3L202.7 154.8L204.9 153.1L207.3 151.6L209.8 150.3L211.8 149.7L213.3 149.7L214.6 149.2L215.6 148.2L218.6 146.6L223.6 144.3L227.4 142.9L230.2 142.4L233.9 141.2L238.7 139.2L242.3 138.1L244.8 137.8L250.4 136.4L259.2 133.9L269.9 132.1L282.7 130.8L295.4 130.6L308.2 131.3L315.8 131.8L318.3 132.1L322.1 132.9L327.1 134.4L330.7 135.2L332.9 135.2L334.7 135.6L335.9 136.3L339.1 137.2L344.1 138.2L347.1 139.1L348.1 139.8L351.1 140.9L356.1 142.4L360.1 144.3L363.1 146.6L365.9 148.1L368.7 148.8L370.6 149.8L371.6 151.1L373.1 152.1L375.1 152.8L378.2 154.7L382.4 157.7L385.9 159.8L388.7 161.1L391.4 162.9L394.2 165.4L396.9 167.6L399.7 169.3L404.4 173.5L411.0 180.1L414.9 184.4L416.2 186.4L418.4 189.2L421.7 192.7L426.8 199.8L433.8 210.6L437.8 217.4L438.8 220.4L440.7 224.6L443.4 229.8L445.7 235.4L447.4 241.4L448.9 245.8L450.2 248.6L452.1 255.9L454.6 267.9L455.8 274.8L455.8 276.6L456.3 277.9L457.3 278.9L457.4 280.1L456.7 281.3L456.4 287.3L456.7 298.1L457.0 303.6L457.4 304.0L458.2 304.0L459.6 303.6L460.3 302.2L460.3 299.7L460.5 298.2L460.9 297.9L461.2 297.9L461.6 298.2L461.9 302.1L462.2 309.3L461.6 318.3L460.1 329.1L458.7 335.9L457.4 338.9L456.8 341.8L456.8 344.6L456.4 346.8L455.7 348.6L455.3 350.1L455.3 351.3L454.9 352.6L454.2 353.8L453.8 354.9L453.8 355.9L453.3 357.1L452.3 358.3L451.3 360.8L450.3 364.6L448.8 368.2L446.8 371.7L445.7 374.2L445.4 375.7L443.2 379.9L438.9 386.9L434.1 394.3L428.6 402.1L422.7 409.3L416.4 416.1L410.9 421.6L406.0 426.0L402.9 428.4L401.7 428.9L397.4 432.1L390.2 437.8L386.1 440.7L385.1 440.7L383.9 441.3L382.7 442.6L379.6 444.2L374.6 446.2L370.1 448.3L366.1 450.6L361.8 452.3L357.3 453.6L353.9 454.8L351.7 456.1L348.4 456.8L344.2 457.1L341.9 457.0L341.5 456.6L341.6 456.0L342.2 455.1L343.4 454.4L345.2 453.9L347.6 452.7L350.6 450.7L352.7 449.6L353.9 449.3L355.8 448.2L358.3 446.2L360.8 444.8L363.3 444.1L366.4 442.3L370.2 439.6L372.8 437.9L374.3 437.4L379.2 434.2L387.4 428.2L393.8 423.2L398.3 419.2L403.1 414.4L408.2 408.8L413.2 402.9L417.9 396.9L422.6 390.4L427.1 383.4L431.6 375.3L436.1 366.1L439.1 358.9L440.6 353.9L441.9 350.2L443.2 347.7L444.7 343.1L446.4 336.3L448.2 327.9L449.9 317.9L450.8 304.9L450.8 288.9L449.6 274.4L447.1 261.4L443.8 249.1L439.8 237.3L434.7 225.3L428.4 213.1L422.6 203.1L417.1 195.3L412.7 190.3L409.4 188.1L407.7 185.9L407.4 183.9L406.4 182.3L404.7 181.1L403.7 179.9L403.4 178.9L403.0 178.1L402.4 177.5L401.4 177.1L400.2 176.8L398.6 175.4L396.6 172.9L394.3 170.9L391.8 169.4L390.2 168.7L389.4 168.7L388.5 167.8L387.4 165.9L385.9 164.0L384.0 162.1L382.2 160.9L380.4 160.4L378.8 159.6L377.3 158.3L375.6 157.3L373.6 156.6L372.1 155.3L371.1 153.6L369.1 152.3L366.1 151.6L363.3 150.6L360.8 149.3L358.6 148.6L356.6 148.3L355.1 147.7L354.1 146.7L350.6 145.4L344.6 143.9L340.7 142.7L338.9 141.7L334.6 140.6L327.6 139.3L323.7 138.4L322.9 137.9L319.7 137.6L313.9 137.3L309.8 136.8L307.3 136.1L300.2 135.6L288.4 135.3L276.9 135.8L265.7 137.1L254.9 138.9L244.7 141.4L237.8 143.4L234.3 144.9L231.7 145.8L229.9 146.1L225.9 147.7L219.7 150.7L214.9 153.3L211.7 155.6L209.7 156.7L208.9 156.7L206.9 157.8L203.7 160.1L201.1 161.6L199.1 162.3L193.9 166.2L185.7 173.2L177.2 181.2L168.6 190.4L164.1 195.6L163.6 196.8L162.4 198.3L160.7 200.1L157.9 204.3L154.2 211.1L151.6 215.3L150.1 217.1L148.8 219.4L147.8 222.4L146.7 224.6L145.4 225.8L142.7 231.9L138.4 242.9L136.2 249.4L135.9 251.4L134.9 254.7L133.2 259.2L131.4 267.7L129.7 280.2L128.8 292.8L128.8 305.6L129.1 312.8L129.6 314.6L129.8 316.7L129.8 319.2L130.1 320.9L130.6 321.9L130.9 324.6L131.2 328.8L132.7 336.2L135.4 346.7L137.4 353.1L138.7 355.3L139.4 357.6L139.7 359.8L140.7 363.2L142.4 367.7L146.3 375.9L152.3 387.9L156.4 395.2L158.7 397.7L159.8 399.3L159.8 400.1L161.4 402.2L164.7 405.7L166.7 408.3L167.4 410.1L168.8 411.9L170.8 413.9L171.8 415.2L171.8 415.7L175.7 419.8L183.4 427.6L187.5 431.9L187.9 432.8L189.9 434.6L193.5 437.5L195.3 439.3L195.3 440.1L195.6 440.8L196.2 441.4L199.2 443.6L204.4 447.3L207.6 449.2L208.6 449.2L209.5 448.8L210.4 447.9L210.9 446.7L211.2 445.2L213.3 440.6L217.3 432.8L220.2 426.9L221.9 422.9L222.8 420.4L222.8 419.4L223.7 417.6L225.4 414.8L229.6 405.8L236.1 390.6L239.8 382.3L240.8 381.1L243.6 375.7L248.1 366.2L251.3 358.8L253.3 353.6L256.6 347.2L261.1 339.7L264.7 333.1L267.4 327.3L268.8 324.1L268.8 323.3L270.3 320.8L273.3 316.6L275.1 313.4L275.6 311.4L278.7 305.1L284.4 294.3L288.8 284.9L291.8 276.9L293.3 272.2L293.3 270.7L293.7 269.4L294.4 268.4L294.8 267.6L294.8 266.8L294.4 266.2L293.5 265.9L292.8 266.0L292.1 266.6L291.8 267.4L291.8 268.4L291.2 270.1L289.9 272.3L289.3 273.8L289.3 274.6L288.8 275.3L287.8 276.1L287.1 277.3L286.6 279.1L284.6 282.4L281.1 287.4L278.9 290.8L278.2 292.6L276.7 294.7L274.4 297.2L269.2 302.2L261.1 309.9L254.9 315.3L250.7 318.6L247.7 320.6L245.9 321.3L240.9 325.3L232.7 332.6L226.2 338.6L221.6 343.5L217.4 348.4L213.7 353.4L210.1 359.6L206.6 366.8L204.1 373.8L202.6 380.6L201.6 384.3L201.1 385.1L200.6 387.4L200.1 391.4L199.9 398.2L200.2 407.7L200.9 415.4L202.2 421.4L204.1 427.6L206.6 433.8L207.6 437.2L207.2 437.9L205.5 436.4L202.4 432.8L197.7 425.8L191.4 415.6L187.7 408.4L186.4 404.4L185.3 401.7L184.3 400.2L183.3 397.4L182.3 393.4L181.6 391.2L181.1 390.7L179.9 385.2L178.2 374.7L177.3 365.3L177.3 357.1L177.7 350.3L178.4 345.1L180.1 338.7L182.6 331.2L185.6 324.2L189.1 317.7L192.8 311.7L196.8 306.2L204.3 297.7L215.3 286.2L223.8 275.8L229.8 266.6L234.6 258.6L238.1 251.8L239.8 248.1L239.8 247.3L241.7 243.3L245.4 236.1L248.3 229.9L250.3 224.9L252.1 221.2L253.6 218.7L254.3 217.1L254.3 216.3L255.4 214.1L257.7 210.3L258.9 207.7L259.2 206.2L260.1 204.2L261.6 201.7L262.7 199.2L263.4 196.7L264.7 193.9L266.4 190.9L267.7 188.1L268.4 185.3L269.3 183.1L270.3 181.3L270.8 179.8L270.8 178.6L271.2 177.4L271.9 176.4L272.4 174.8L272.7 172.6L273.4 169.7L274.7 166.2L275.4 159.3L275.7 149.1L276.1 143.8L276.8 143.4L278.5 145.2L281.4 149.4L285.2 156.6L289.9 166.8L293.1 175.3L294.6 182.1L295.4 189.3L295.7 197.1L296.2 201.8L296.9 203.6L297.2 205.8L296.9 208.6L297.0 210.1L297.4 210.5L298.0 210.5L298.9 210.1L299.4 209.4L299.7 208.4L299.8 204.4L299.8 197.4L300.1 192.5L300.8 189.6L301.5 189.9L302.4 193.2L303.4 195.3L304.7 196.1L305.4 196.9L305.7 197.9L305.8 198.8L305.8 199.6L305.1 200.3L303.6 201.1L302.6 205.3L302.1 213.1L301.9 219.4L302.2 224.4L301.8 229.3L300.8 234.1L300.3 237.6L300.3 239.8L300.8 241.3L301.8 242.1L302.3 243.1L302.3 244.3L302.2 245.8L301.9 247.6L301.6 248.7L301.1 249.2L300.7 251.3L300.4 255.1L299.6 259.2L298.1 263.7L297.3 266.6L297.3 267.8L297.1 268.7L296.6 269.2L296.2 270.8L295.9 273.6L295.4 275.6L294.7 276.8L294.6 278.3L295.1 280.1L295.3 281.2L295.3 281.7L294.8 282.3L293.8 283.1L293.6 284.6L294.1 286.8L293.7 288.3L292.4 289.1L291.8 290.2L291.8 291.7L290.8 295.1L288.8 300.3L287.8 303.4L287.8 304.4L286.8 307.2L284.8 311.7L283.8 314.4L283.8 315.4L282.8 317.9L280.8 321.9L279.6 325.2L279.1 327.7L278.2 329.3L276.9 330.1L276.3 330.9L276.3 331.9L277.6 335.1L280.1 340.3L281.3 343.3L281.3 344.1L283.6 348.9L288.1 357.9L290.8 364.2L291.8 367.7L292.8 370.1L293.8 371.3L295.4 374.2L297.5 378.9L299.1 381.0L300.2 380.6L300.8 379.9L300.8 378.9L301.4 377.1L302.7 374.3L304.6 372.0L307.2 370.1L312.9 369.7L321.7 370.7L329.2 371.2L335.4 371.2L339.9 370.1L342.5 368.0L344.1 366.3L344.6 365.1L344.8 362.7L344.8 359.2L344.3 356.2L343.3 353.7L342.8 351.8L342.8 350.6L343.3 348.6L344.3 345.8L343.8 342.9L341.8 339.9L342.9 336.3L347.2 332.1L348.9 327.9L348.2 323.9L347.3 321.4L346.3 320.4L345.7 319.3L345.4 318.1L346.0 316.8L347.4 315.4L348.8 314.3L350.3 313.6L351.9 312.2L353.5 310.4L353.8 308.2L352.8 305.7L350.1 302.2L345.6 297.7L341.6 292.6L338.1 286.8L335.9 282.6L335.2 279.8L334.2 277.9L332.9 276.9L332.1 274.4L331.6 270.4L331.6 267.1L332.1 264.3L331.6 262.2L330.1 260.7L329.3 258.4L329.3 255.4L328.8 253.3L327.8 252.1L326.8 250.2L325.8 247.7L324.3 245.2L322.3 242.7L320.3 239.4L318.3 235.4L316.2 232.2L313.9 229.7L312.8 227.7L312.8 226.2L312.3 224.8L311.3 223.6L310.3 220.6L309.3 215.8L308.1 211.3L306.6 207.1L306.0 204.5L306.4 203.6L309.0 208.1L313.9 218.0L319.7 227.1L326.4 235.3L332.1 243.2L336.6 250.7L339.1 255.7L339.6 258.2L340.7 261.7L342.4 266.2L343.3 270.3L343.3 274.1L343.9 278.1L345.2 282.3L347.3 286.4L350.3 290.4L355.8 296.6L363.8 304.8L367.8 309.4L367.8 310.4L366.0 312.5L362.4 315.6L359.7 318.3L357.9 320.6L356.6 321.9L355.8 322.2L355.3 323.3L355.3 325.1L356.2 327.2L357.9 329.7L358.8 331.7L358.8 333.2L358.7 334.3L358.4 335.1L357.4 336.2L355.7 337.7L354.8 338.8L354.8 339.6L355.3 340.7L356.3 342.2L356.8 343.6L356.8 344.8L355.7 347.1L353.4 350.3L352.4 353.4L352.7 356.4L353.2 359.2L353.9 361.7L354.3 363.8L354.3 365.6L353.8 367.7L352.8 370.2L351.4 372.4L349.5 374.2L347.9 375.3L346.7 375.6L344.9 376.4L342.7 377.9L338.7 378.7L332.9 378.7L328.3 378.4L324.8 377.9L320.3 377.8L314.8 378.1L311.0 378.9L308.9 380.2L307.4 382.4L306.7 385.4L305.6 387.1L304.2 387.5L303.4 388.4L303.0 389.8L304.2 393.4L306.9 399.4L308.3 402.9L308.3 403.9L308.8 405.2L309.8 406.7L310.9 409.4L312.2 413.4L313.4 416.1L314.7 417.3L315.8 419.4L316.8 422.4L317.9 424.8L319.2 426.6L320.1 428.4L320.6 430.4L321.3 432.1L322.3 433.3L322.9 434.7L323.2 436.2L324.2 438.3L325.9 441.1L329.1 447.3L333.6 457.1L337.3 464.2L340.3 468.7L342.3 472.3L343.3 475.1L346.9 480.7L353.2 489.2L359.2 496.4L365.1 502.2L362.9 505.2L352.7 505.2L343.8 501.6L336.1 494.5L330.3 488.4L326.3 483.4L322.3 477.3L318.3 470.1L315.7 465.7L314.4 464.2L312.7 460.7L310.4 455.2L308.9 452.1L308.2 451.3L306.9 449.1L305.2 445.3L303.8 441.9L302.8 438.9L301.6 436.2L300.1 433.7L298.8 430.9L297.8 427.9L296.7 425.4L295.4 423.4L294.7 421.7L294.4 420.2L293.5 418.1L291.9 415.5L285.9 414.2L275.7 414.2L266.9 414.7L259.7 415.7L253.2 416.9L247.4 418.4L243.9 419.8L242.7 421.1L241.2 421.9L239.4 422.4L237.4 423.4L235.2 424.9L233.1 426.6L231.2 428.5L229.9 430.3L229.2 432.1L228.2 435.4L226.9 440.4L225.9 443.4L225.2 444.4L224.1 447.1L222.6 451.3L221.8 454.1L221.8 455.3L227.2 458.9L237.9 464.9L243.0 468.1L242.4 468.5L241.3 468.4L239.8 467.9L237.9 467.1L235.7 465.8L233.3 464.9L230.8 464.4L227.9 463.2L224.7 461.2L222.3 460.1L220.8 459.8L219.5 460.6L218.4 462.5L217.3 465.7L216.3 470.2L215.2 473.4L213.9 475.4L212.7 478.2L211.4 481.7L209.4 485.7L206.7 490.2L203.7 494.4L200.4 498.4L197.6 501.6L195.2 504.0L189.2 505.2L179.4 505.2L174.5 505.0L174.4 504.6L176.4 502.4L180.7 498.4L185.4 492.8L190.7 485.6L194.2 479.9L195.9 475.9L198.3 471.4L201.3 466.4L203.3 462.4L204.3 459.4L205.4 456.9L206.7 454.9L207.3 453.3L207.3 452.1L207.0 451.0L206.4 450.1L203.8 448.7L199.3 446.7L196.4 445.2L195.2 444.2L193.9 443.6L192.7 443.3L191.1 442.3L189.1 440.6L186.2 438.6L182.4 436.3L177.4 432.3L171.2 426.6L167.3 423.7L165.8 423.7L164.5 422.4L163.4 419.8L162.1 417.8L160.8 416.4L159.3 415.7L157.8 415.7L156.8 415.4L156.1 414.8L155.8 413.8L155.8 412.6L153.2 408.4L147.9 401.4L143.1 396.2L138.6 392.7L136.3 389.3L136.3 386.1L134.6 380.7L131.1 373.2L128.3 367.8L126.3 364.6L124.7 360.7L123.4 356.2L122.4 353.6L121.7 352.8L119.9 347.2L117.2 336.7L115.3 327.3L114.3 319.1L113.4 314.1L112.7 312.3L112.3 309.3L112.3 305.1L111.8 302.3L110.8 301.1L110.3 299.8L110.3 298.6L110.8 297.3L111.8 296.1L112.4 291.2L112.7 282.7L113.3 276.6L114.3 272.8L115.1 267.9L115.6 261.9L116.2 258.3L116.9 257.1L117.6 254.8L118.1 251.6L119.9 245.2L123.2 235.7L127.4 225.3L132.7 214.1L139.7 202.1L148.4 189.3L156.4 179.2L163.5 171.9L172.2 164.1L182.4 155.8L188.4 151.3L190.2 150.6L192.2 149.2L194.4 147.2L196.7 145.9L198.9 145.4L201.4 144.2L204.2 142.2L206.2 141.2L207.4 141.2L209.3 140.2L211.8 138.2L214.9 136.3L218.7 134.6L225.2 132.3L234.4 129.6L241.1 127.8L245.1 127.1L247.1 126.6L247.2 126.5ZM299.1 174.6L299.6 174.8L300.2 177.1L300.9 181.3L301.3 184.2L301.3 185.7L301.1 186.6L300.8 187.0L300.1 185.5L299.2 182.1L298.8 179.0L298.6 176.1L298.6 174.6L298.8 174.5ZM490.7 181.1L491.4 181.3L491.5 181.9L490.9 182.8L487.1 185.8L480.1 191.1L473.4 196.4L467.2 201.9L463.3 204.8L461.8 205.1L460.4 205.7L459.2 206.7L456.8 207.2L453.3 207.2L451.4 207.0L451.0 206.6L450.8 205.3L450.8 203.1L452.1 200.2L454.8 196.9L457.1 194.8L459.1 194.1L462.2 193.4L466.4 192.9L469.1 192.2L470.2 191.4L471.0 190.2L471.4 188.9L472.7 187.8L474.9 187.1L477.4 185.8L480.2 184.1L482.4 183.2L484.2 183.2L486.3 182.7L488.8 181.7L490.1 181.1L490.2 181.0ZM91.2 182.8L95.1 184.4L97.6 185.7L98.6 186.7L101.2 188.2L105.4 190.2L109.3 191.8L112.8 193.1L116.7 195.2L120.9 198.2L123.9 200.6L125.5 202.5L126.6 204.1L127.1 205.3L127.1 206.1L126.8 206.5L124.6 206.6L120.6 206.3L117.1 205.7L114.1 204.7L108.9 201.1L101.7 194.8L96.6 190.1L93.6 186.8L91.2 184.6L89.6 183.5L88.9 182.8L89.0 182.4L89.1 182.1L89.2 182.0ZM369.2 189.4L369.9 190.4L370.3 195.2L370.3 203.7L370.1 208.6L369.6 209.8L368.7 210.9L367.4 211.9L366.8 213.4L366.8 215.4L367.2 216.9L367.9 217.9L368.6 218.8L369.2 219.4L370.1 219.7L371.1 219.7L371.9 219.6L372.7 219.3L373.7 218.4L374.9 216.9L379.4 216.2L387.2 216.2L392.0 216.5L393.9 217.1L394.0 217.9L392.4 218.8L390.6 219.3L388.6 219.6L387.4 220.1L387.0 221.0L385.9 222.1L384.2 223.3L383.2 224.9L382.9 226.9L382.4 228.2L381.5 228.9L379.7 228.3L376.9 226.6L374.4 225.7L372.2 225.7L370.9 225.9L370.5 226.2L370.3 231.1L370.3 240.3L370.0 245.2L369.4 245.9L368.9 246.0L368.5 245.6L367.8 240.7L366.8 231.2L365.8 226.2L364.6 225.9L363.6 225.9L362.6 226.4L361.4 225.1L360.2 221.8L358.7 220.3L356.9 220.6L355.7 220.3L354.9 219.6L352.8 219.1L349.3 218.8L346.6 218.4L344.8 217.8L345.1 217.1L347.8 216.5L352.4 216.2L359.2 216.2L362.8 216.0L363.1 215.6L363.3 214.9L363.3 213.9L362.1 212.2L359.6 209.7L358.3 207.8L358.3 206.6L358.6 205.8L359.2 205.4L360.6 206.2L362.6 208.2L364.4 209.0L366.0 208.6L366.8 206.7L366.8 203.2L367.2 198.4L368.1 192.2L368.6 189.1L368.8 189.0ZM287.0 235.5L283.9 240.1L280.7 244.2L277.4 247.7L275.8 249.8L275.8 250.6L275.5 251.2L274.9 251.9L273.1 252.9L270.1 254.4L267.1 256.7L264.1 259.7L261.2 261.3L258.4 261.6L255.6 262.8L252.6 265.1L249.4 266.8L246.2 268.1L242.4 271.1L238.2 275.8L233.7 279.9L228.9 283.4L225.1 286.9L222.1 290.4L220.2 292.2L219.4 292.2L218.6 292.6L217.8 293.5L217.3 294.3L217.3 295.1L217.9 295.6L219.0 296.0L220.2 295.3L221.4 293.6L222.9 292.6L224.7 292.3L226.3 291.4L227.8 289.9L230.2 288.4L233.4 286.9L237.6 284.4L242.6 280.9L246.4 278.6L249.2 277.3L254.6 273.7L262.6 267.7L269.4 262.0L275.0 256.6L278.6 252.7L280.1 250.2L281.8 247.9L283.8 245.9L286.3 242.6L289.3 237.8L290.8 235.1L290.8 234.3L290.4 233.8L289.5 233.4L288.9 233.2L288.7 233.2ZM65.4 238.8L71.5 239.4L75.6 240.1L77.6 240.8L79.7 241.2L81.9 241.2L87.6 242.2L96.6 244.2L102.9 246.2L106.7 248.2L108.9 249.6L109.5 250.5L109.2 251.4L108.1 252.2L106.3 253.1L103.8 253.8L100.6 254.4L96.6 254.9L92.7 254.2L88.9 252.2L86.6 251.2L85.6 251.2L84.6 250.7L83.6 249.7L82.4 249.1L81.2 248.8L79.1 247.7L76.1 245.7L73.2 244.3L70.4 243.6L68.6 242.7L67.6 241.7L66.2 240.9L64.4 240.4L63.2 239.8L62.4 239.1L62.1 238.6L62.2 238.5ZM511.9 239.9L513.0 239.8L513.8 239.9L514.1 240.2L511.0 242.2L504.4 245.9L497.1 249.4L489.1 252.9L481.9 254.7L475.7 254.7L471.6 254.6L469.6 254.3L468.1 253.8L467.2 252.9L466.9 251.9L467.2 250.9L468.2 249.5L470.1 247.6L471.7 246.4L472.9 245.9L478.6 245.4L488.6 244.9L495.8 243.9L500.3 242.4L503.4 241.7L505.2 241.7L507.3 241.3L509.8 240.6L511.1 240.1L511.2 240.0ZM325.3 279.1L326.3 279.3L326.8 280.1L326.8 281.3L327.7 282.8L329.4 284.6L329.5 286.1L327.9 287.5L324.8 288.2L320.3 288.2L317.2 287.8L315.4 287.1L313.0 285.5L309.9 283.1L308.9 281.8L310.0 281.4L311.1 281.4L312.1 281.9L315.1 282.2L320.1 282.2L323.0 281.9L323.9 281.2L324.4 280.5L324.5 279.6L324.6 279.1L324.8 279.0ZM53.0 290.0L56.4 290.1L58.6 290.9L59.6 292.4L61.6 293.4L64.6 293.9L66.7 294.7L67.9 295.7L72.4 297.2L80.2 299.2L88.2 300.4L96.4 300.9L102.2 300.8L105.4 300.1L107.2 300.2L107.6 301.4L105.5 304.4L100.9 309.2L96.9 312.6L93.7 314.3L91.4 315.2L90.2 315.2L89.2 315.4L88.4 315.9L84.8 316.2L78.3 316.2L72.7 315.6L67.9 314.3L61.7 311.8L53.9 308.1L46.8 305.8L40.3 305.1L34.8 304.1L30.3 302.8L22.2 302.2L10.4 302.2L4.4 302.0L4.0 301.6L4.1 301.0L4.8 300.1L8.1 298.9L14.1 297.4L17.6 296.3L18.6 295.6L20.3 294.8L22.8 294.1L26.7 293.4L31.9 292.9L34.9 292.4L35.7 291.9L38.2 291.3L42.4 290.6L46.2 290.2L49.4 290.2L51.1 290.1L51.2 290.0ZM499.8 294.0L506.6 294.1L510.9 294.4L512.7 294.9L514.9 296.3L517.7 298.6L520.6 299.9L523.6 300.4L526.8 301.3L530.3 302.6L541.3 303.2L559.8 303.2L569.2 303.4L569.6 303.8L568.6 304.4L566.2 305.2L564.3 306.4L562.8 307.9L561.1 309.1L559.1 309.8L554.1 311.4L546.1 313.9L539.6 315.4L534.6 315.9L528.1 315.9L520.1 315.4L515.6 314.8L514.6 314.1L513.3 313.7L511.8 313.7L510.1 313.2L508.1 312.2L505.6 311.7L502.6 311.7L500.3 311.2L498.8 310.2L494.6 309.6L487.6 309.3L483.6 309.4L482.6 309.9L480.1 310.4L476.1 310.9L473.2 311.0L471.6 310.6L470.8 309.8L470.8 308.6L471.3 306.9L472.3 304.9L474.9 302.2L479.0 298.9L481.9 296.8L483.7 296.1L487.4 295.3L493.2 294.6L496.1 294.1L496.2 294.0ZM207.2 304.6L205.6 306.5L205.0 308.0L205.4 309.1L205.9 309.7L206.7 309.7L207.8 309.0L209.1 307.6L209.9 306.3L210.2 305.1L209.9 304.2L209.0 303.9L208.4 303.7L208.2 303.7ZM197.0 319.8L195.9 320.9L195.5 322.1L195.9 323.5L196.3 324.2L196.8 324.2L197.6 323.4L198.8 321.8L199.3 320.7L199.3 320.2L199.0 319.8L198.4 319.4L197.9 319.2L197.7 319.2ZM193.4 327.4L193.0 328.8L192.4 329.8L191.7 330.6L191.3 331.4L191.3 332.4L190.6 333.8L189.1 335.6L187.8 338.6L186.8 342.8L186.5 345.8L186.9 347.4L187.6 347.9L188.8 347.2L189.6 346.3L190.1 345.1L190.3 343.7L190.3 342.2L190.8 340.3L191.8 338.1L192.3 336.1L192.3 334.3L193.1 332.2L194.6 329.7L195.3 328.2L195.3 327.7L195.0 327.2L194.4 326.9L193.9 326.7L193.7 326.7ZM185.6 351.5L184.8 354.1L184.3 360.8L184.3 371.6L184.6 378.7L185.1 382.2L185.8 384.1L186.6 384.5L187.2 383.9L187.6 382.2L187.6 376.1L187.1 365.3L187.1 357.7L187.6 353.2L187.5 350.8L186.9 350.4L186.4 350.2L186.2 350.2ZM100.5 353.1L105.9 353.5L109.2 354.2L110.6 355.4L110.9 356.7L110.2 358.2L107.9 360.6L104.0 364.0L99.6 365.9L94.6 366.4L91.3 367.1L89.8 367.8L87.9 368.2L85.7 368.2L84.2 368.4L83.4 368.9L80.2 369.3L74.4 369.6L70.3 370.1L67.8 370.8L65.8 371.2L64.3 371.2L63.4 371.0L63.0 370.6L63.1 370.1L63.8 369.5L64.7 369.2L65.9 369.2L66.9 368.8L67.7 368.1L71.7 366.1L78.9 362.8L82.9 360.7L83.7 359.7L84.8 359.1L86.3 358.8L88.6 357.6L91.6 355.3L94.2 353.9L96.4 353.4L97.6 353.1L97.8 353.0ZM469.1 353.4L473.8 353.2L477.9 354.4L481.7 356.9L486.7 359.6L492.9 362.3L499.6 364.7L506.6 366.7L510.6 368.2L511.8 369.4L512.0 370.1L511.4 370.5L510.1 370.3L508.1 369.6L505.1 369.1L501.1 368.8L497.1 368.2L493.1 367.2L489.7 366.7L486.9 366.7L483.2 366.2L478.4 365.2L474.2 363.1L470.6 360.0L468.2 357.2L467.1 354.9L466.6 353.6L466.8 353.5ZM261.5 357.9L258.4 363.2L256.3 367.4L255.3 370.4L253.8 373.8L251.8 377.6L249.6 383.1L247.1 390.3L244.6 396.1L242.1 400.3L240.7 403.2L240.4 404.7L239.7 406.6L238.4 408.8L237.7 411.1L237.4 413.3L237.5 414.6L237.9 415.0L238.9 415.2L240.7 415.2L241.9 414.7L242.7 413.7L244.9 412.7L248.7 411.7L251.8 410.6L254.3 409.3L260.7 408.9L270.9 409.4L278.3 409.6L282.8 409.3L285.6 408.8L286.8 407.9L286.7 404.8L285.4 399.6L282.6 392.3L278.1 383.1L275.1 376.3L273.6 372.1L272.3 369.3L271.3 368.1L269.7 364.7L267.4 359.2L266.0 356.1L265.4 355.5L264.7 355.2L263.9 355.2L263.4 355.2L263.2 355.2ZM447.2 395.4L448.1 395.2L448.9 395.6L449.7 396.3L450.7 396.7L451.9 396.7L454.2 397.9L457.4 400.4L462.4 405.1L469.2 411.8L475.2 416.8L480.4 420.1L484.5 422.9L487.4 425.2L488.5 426.6L487.9 427.0L486.2 426.8L483.4 426.1L480.8 424.8L478.3 423.1L476.1 421.9L474.1 421.4L471.6 420.3L468.6 418.6L465.8 417.3L463.3 416.6L461.3 415.6L459.8 414.3L458.4 413.6L457.2 413.3L454.8 411.5L451.1 408.1L448.9 405.8L448.2 404.6L447.4 402.7L446.7 400.2L446.4 398.1L446.5 396.5L446.6 395.6L446.8 395.5ZM125.0 397.1L128.4 397.5L130.4 398.0L131.0 398.6L131.2 401.4L130.9 406.4L130.6 409.1L130.2 409.5L129.6 409.7L128.6 409.7L125.9 411.3L121.7 414.6L118.6 416.6L116.6 417.3L115.2 418.2L114.4 419.2L113.6 419.7L112.6 419.7L111.6 420.1L110.6 420.8L109.6 421.2L108.6 421.2L107.7 421.6L106.9 422.3L104.9 423.1L101.7 423.8L96.4 426.1L89.2 429.8L85.1 431.5L84.2 431.1L84.0 430.4L84.4 429.2L88.4 425.7L96.2 419.7L103.6 413.2L110.8 406.4L115.0 402.0L116.4 400.1L118.1 399.1L120.1 398.8L121.6 398.3L122.6 397.6L123.1 397.1L123.2 397.0ZM411.1 431.9L411.8 431.8L412.4 432.1L413.2 432.8L414.7 433.2L416.9 433.2L418.6 433.6L419.6 434.3L420.4 434.7L421.2 434.7L425.0 438.1L431.9 445.0L435.8 449.2L436.8 450.7L438.3 454.9L440.3 461.9L442.7 467.8L445.4 472.6L448.9 477.7L453.2 483.2L457.9 488.4L463.2 493.4L465.6 496.1L465.2 496.5L463.2 495.9L459.4 494.4L452.4 490.7L442.2 484.7L434.2 479.2L428.6 474.4L425.1 470.4L423.6 467.4L422.1 465.4L420.6 464.4L419.8 463.1L419.8 461.3L419.2 458.4L417.9 454.4L417.3 451.8L417.3 450.6L416.7 449.3L415.4 448.1L414.6 445.6L414.1 441.8L413.4 439.4L412.7 438.4L411.9 436.5L411.0 433.6L410.6 432.1L410.8 432.0ZM157.4 433.0L162.5 433.1L165.2 433.5L165.6 434.1L165.2 435.7L163.9 438.2L163.2 440.6L162.9 442.8L162.4 444.3L161.7 445.1L160.9 446.4L160.2 448.4L159.7 451.6L159.4 455.8L158.8 458.8L157.8 460.6L157.3 461.9L157.3 462.9L156.2 465.2L153.9 468.7L150.8 472.6L146.6 477.0L142.7 480.6L138.9 483.3L136.6 484.8L135.6 485.1L132.8 486.7L128.3 489.7L121.8 493.1L113.3 496.8L108.9 498.5L108.5 498.1L108.6 497.4L109.1 496.4L113.1 492.1L120.6 484.3L124.3 480.1L124.3 479.3L125.4 477.3L127.7 474.1L129.8 470.4L131.8 466.4L133.9 460.8L136.2 453.6L138.2 448.3L139.9 445.1L143.2 441.1L148.1 436.5L151.6 433.9L153.6 433.4L154.6 433.1L154.8 433.0Z"/>
  </g>
</svg>
